# xmcd
#
# Track frame offsets:
#	150
#	17919
#	36677
#	53882
#	73283
#	92837
#	112097
#	126640
#	152740
#	169000
#	185029
#	198181
#	216402
#	238462
#	255376
#	278891
#	301946
#	318600
#
# Disc length: 4543 seconds
#
# Revision: 0
# Processed by: cddbd v1.5.1PL2 Copyright (c) Steve Scherf et al.
# Submitted via: dBpowerAMP V4.0
#
DISCID=2111bd12
DTITLE=Celso Blues Boy - Som na Guitarra and Marginal blues
DYEAR=1985
DGENRE=Blues
TTITLE0=Aumenta que isso é rock and roll
TTITLE1=Fumando na escuridão
TTITLE2=Tempos difíceis
TTITLE3=Brilho da noite
TTITLE4=Amor vazio
TTITLE5=Rock fora da lei
TTITLE6=Filhos da bomba
TTITLE7=Blues motel
TTITLE8=Caminhando
TTITLE9=Marginal
TTITLE10=Só me resta um blues
TTITLE11=Quem entende (I can´t stand it)
TTITLE12=Não me espere
TTITLE13=A velha música
TTITLE14=Forasteiro
TTITLE15=Isso não é nada mais
TTITLE16=Alyne
TTITLE17=Dry blues gin
EXTD=
EXTT0=
EXTT1=
EXTT2=
EXTT3=
EXTT4=
EXTT5=
EXTT6=
EXTT7=
EXTT8=
EXTT9=
EXTT10=
EXTT11=
EXTT12=
EXTT13=
EXTT14=
EXTT15=
EXTT16=
EXTT17=
PLAYORDER=
